<?xml version="1.0" encoding="UTF-8"?>
<svg xmlns="http://www.w3.org/2000/svg" xmlns:xlink="http://www.w3.org/1999/xlink" width="80px" height="80px" viewBox="0 0 80 80" version="1.1">
<defs>
<linearGradient id="linear0" gradientUnits="userSpaceOnUse" x1="111.624" y1="80.764" x2="335.625" y2="384.799" gradientTransform="matrix(0.172786,0,0,0.172786,0,0)">
<stop offset="0" style="stop-color:rgb(0%,98.039216%,100%);stop-opacity:1;"/>
<stop offset="1" style="stop-color:rgb(54.509804%,100%,58.431373%);stop-opacity:1;"/>
</linearGradient>
<linearGradient id="linear1" gradientUnits="userSpaceOnUse" x1="111.624" y1="80.764" x2="335.625" y2="384.799" gradientTransform="matrix(0.172786,0,0,0.172786,0,0)">
<stop offset="0" style="stop-color:rgb(0%,98.039216%,100%);stop-opacity:1;"/>
<stop offset="1" style="stop-color:rgb(54.509804%,100%,58.431373%);stop-opacity:1;"/>
</linearGradient>
<linearGradient id="linear2" gradientUnits="userSpaceOnUse" x1="111.624" y1="80.764" x2="335.625" y2="384.799" gradientTransform="matrix(0.172786,0,0,0.172786,0,0)">
<stop offset="0" style="stop-color:rgb(0%,98.039216%,100%);stop-opacity:1;"/>
<stop offset="1" style="stop-color:rgb(54.509804%,100%,58.431373%);stop-opacity:1;"/>
</linearGradient>
<linearGradient id="linear3" gradientUnits="userSpaceOnUse" x1="111.624" y1="80.764" x2="335.625" y2="384.799" gradientTransform="matrix(0.172786,0,0,0.172786,0,0)">
<stop offset="0" style="stop-color:rgb(0%,98.039216%,100%);stop-opacity:1;"/>
<stop offset="1" style="stop-color:rgb(54.509804%,100%,58.431373%);stop-opacity:1;"/>
</linearGradient>
<linearGradient id="linear4" gradientUnits="userSpaceOnUse" x1="111.624" y1="80.764" x2="335.625" y2="384.799" gradientTransform="matrix(0.172786,0,0,0.172786,0,0)">
<stop offset="0" style="stop-color:rgb(0%,98.039216%,100%);stop-opacity:1;"/>
<stop offset="1" style="stop-color:rgb(54.509804%,100%,58.431373%);stop-opacity:1;"/>
</linearGradient>
<linearGradient id="linear5" gradientUnits="userSpaceOnUse" x1="111.624" y1="80.764" x2="335.625" y2="384.799" gradientTransform="matrix(0.172786,0,0,0.172786,0,0)">
<stop offset="0" style="stop-color:rgb(0%,98.039216%,100%);stop-opacity:1;"/>
<stop offset="1" style="stop-color:rgb(54.509804%,100%,58.431373%);stop-opacity:1;"/>
</linearGradient>
</defs>
<g id="surface1">
<path style=" stroke:none;fill-rule:nonzero;fill:rgb(0%,0%,0%);fill-opacity:1;" d="M 63.839844 0 L 16.097656 0 C 7.222656 0 0.0273438 7.195312 0.0273438 16.070312 L 0.0273438 63.808594 C 0.0273438 72.683594 7.222656 79.878906 16.097656 79.878906 L 63.839844 79.878906 C 72.714844 79.878906 79.90625 72.683594 79.90625 63.808594 L 79.90625 16.070312 C 79.90625 7.195312 72.714844 0 63.839844 0 Z M 63.839844 0 "/>
<path style=" stroke:none;fill-rule:nonzero;fill:rgb(100%,100%,100%);fill-opacity:1;" d="M 47.503906 19.828125 C 47.507812 20.820312 47.902344 21.769531 48.605469 22.472656 C 49.308594 23.171875 50.261719 23.566406 51.253906 23.566406 C 52.25 23.566406 53.203125 23.171875 53.90625 22.472656 C 54.609375 21.769531 55.003906 20.820312 55.003906 19.828125 C 55.003906 18.839844 54.609375 17.886719 53.90625 17.1875 C 53.203125 16.488281 52.25 16.09375 51.253906 16.089844 C 50.261719 16.09375 49.308594 16.488281 48.605469 17.1875 C 47.902344 17.886719 47.507812 18.839844 47.503906 19.828125 Z M 47.503906 19.828125 "/>
<path style=" stroke:none;fill-rule:nonzero;fill:rgb(100%,100%,100%);fill-opacity:1;" d="M 24.929688 60.027344 C 24.933594 61.019531 25.328125 61.96875 26.03125 62.667969 C 26.734375 63.371094 27.6875 63.765625 28.679688 63.765625 C 29.675781 63.765625 30.628906 63.371094 31.332031 62.667969 C 32.035156 61.96875 32.429688 61.019531 32.429688 60.027344 C 32.429688 59.035156 32.035156 58.085938 31.332031 57.386719 C 30.628906 56.683594 29.675781 56.289062 28.679688 56.289062 C 27.6875 56.289062 26.734375 56.683594 26.03125 57.386719 C 25.328125 58.085938 24.933594 59.035156 24.929688 60.027344 Z M 24.929688 60.027344 "/>
<path style=" stroke:none;fill-rule:nonzero;fill:rgb(100%,100%,100%);fill-opacity:1;" d="M 47.226562 39.929688 C 47.230469 40.917969 47.625 41.871094 48.328125 42.570312 C 49.03125 43.269531 49.984375 43.664062 50.980469 43.664062 C 51.972656 43.664062 52.925781 43.269531 53.628906 42.570312 C 54.332031 41.871094 54.726562 40.917969 54.730469 39.929688 C 54.726562 38.9375 54.332031 37.988281 53.628906 37.285156 C 52.925781 36.585938 51.972656 36.191406 50.980469 36.191406 C 49.984375 36.191406 49.03125 36.585938 48.328125 37.285156 C 47.625 37.988281 47.230469 38.9375 47.226562 39.929688 Z M 47.226562 39.929688 "/>
<path style=" stroke:none;fill-rule:nonzero;fill:rgb(100%,100%,100%);fill-opacity:1;" d="M 13.359375 39.929688 C 13.359375 40.917969 13.753906 41.871094 14.457031 42.570312 C 15.160156 43.269531 16.113281 43.664062 17.109375 43.664062 C 18.101562 43.664062 19.054688 43.269531 19.757812 42.570312 C 20.460938 41.871094 20.855469 40.917969 20.859375 39.929688 C 20.855469 38.9375 20.460938 37.988281 19.757812 37.285156 C 19.054688 36.585938 18.101562 36.191406 17.109375 36.191406 C 16.113281 36.191406 15.160156 36.585938 14.457031 37.285156 C 13.753906 37.988281 13.359375 38.9375 13.359375 39.929688 Z M 13.359375 39.929688 "/>
<path style=" stroke:none;fill-rule:nonzero;fill:url(#linear0);" d="M 31.800781 21.929688 C 31.957031 21.683594 32.167969 21.480469 32.421875 21.335938 C 32.671875 21.195312 32.957031 21.113281 33.246094 21.105469 L 35.445312 21.105469 C 35.734375 21.113281 36.015625 21.191406 36.269531 21.335938 C 36.519531 21.480469 36.734375 21.683594 36.886719 21.929688 C 37.230469 22.429688 37.691406 22.839844 38.230469 23.121094 C 38.769531 23.40625 39.371094 23.554688 39.980469 23.554688 C 40.539062 23.554688 41.089844 23.433594 41.59375 23.191406 C 42.097656 22.953125 42.539062 22.605469 42.890625 22.171875 C 43.246094 21.738281 43.496094 21.226562 43.628906 20.679688 C 43.757812 20.132812 43.765625 19.5625 43.644531 19.015625 C 43.492188 18.296875 43.132812 17.644531 42.609375 17.132812 C 42.082031 16.621094 41.417969 16.273438 40.699219 16.136719 C 39.960938 15.996094 39.199219 16.074219 38.507812 16.371094 C 37.820312 16.664062 37.234375 17.15625 36.824219 17.785156 C 36.664062 18.015625 36.449219 18.199219 36.195312 18.324219 C 35.941406 18.453125 35.664062 18.511719 35.382812 18.503906 L 33.285156 18.503906 C 33.003906 18.511719 32.726562 18.449219 32.472656 18.324219 C 32.222656 18.199219 32.003906 18.011719 31.839844 17.785156 C 31.429688 17.164062 30.84375 16.675781 30.152344 16.390625 C 29.464844 16.101562 28.703125 16.027344 27.972656 16.171875 C 27.25 16.308594 26.589844 16.65625 26.0625 17.167969 C 25.539062 17.679688 25.179688 18.335938 25.027344 19.050781 C 24.910156 19.597656 24.914062 20.167969 25.046875 20.714844 C 25.175781 21.261719 25.425781 21.769531 25.78125 22.207031 C 26.132812 22.640625 26.578125 22.988281 27.082031 23.226562 C 27.585938 23.46875 28.136719 23.589844 28.695312 23.589844 C 29.308594 23.589844 29.914062 23.4375 30.457031 23.144531 C 31 22.855469 31.460938 22.4375 31.800781 21.929688 Z M 31.800781 21.929688 "/>
<path style=" stroke:none;fill-rule:nonzero;fill:url(#linear1);" d="M 37.445312 32 C 37.601562 31.757812 37.8125 31.554688 38.066406 31.410156 C 38.316406 31.265625 38.597656 31.1875 38.890625 31.175781 L 41.085938 31.175781 C 41.378906 31.1875 41.660156 31.265625 41.914062 31.410156 C 42.164062 31.554688 42.375 31.757812 42.53125 32 C 42.875 32.503906 43.335938 32.914062 43.875 33.195312 C 44.414062 33.480469 45.015625 33.628906 45.625 33.628906 C 46.183594 33.628906 46.734375 33.503906 47.234375 33.265625 C 47.738281 33.027344 48.183594 32.675781 48.535156 32.246094 C 48.890625 31.808594 49.140625 31.296875 49.273438 30.75 C 49.402344 30.207031 49.40625 29.636719 49.289062 29.085938 C 49.136719 28.371094 48.777344 27.714844 48.25 27.203125 C 47.726562 26.691406 47.0625 26.347656 46.34375 26.207031 C 45.605469 26.066406 44.84375 26.148438 44.152344 26.441406 C 43.464844 26.734375 42.875 27.226562 42.46875 27.855469 C 42.308594 28.085938 42.089844 28.273438 41.839844 28.398438 C 41.585938 28.523438 41.308594 28.585938 41.027344 28.574219 L 38.929688 28.574219 C 38.648438 28.582031 38.367188 28.523438 38.117188 28.394531 C 37.863281 28.269531 37.648438 28.085938 37.484375 27.855469 C 37.074219 27.234375 36.484375 26.75 35.796875 26.460938 C 35.109375 26.175781 34.347656 26.101562 33.617188 26.246094 C 32.894531 26.382812 32.230469 26.730469 31.707031 27.242188 C 31.183594 27.753906 30.824219 28.40625 30.671875 29.121094 C 30.550781 29.671875 30.558594 30.242188 30.691406 30.789062 C 30.820312 31.332031 31.070312 31.84375 31.425781 32.28125 C 31.777344 32.714844 32.21875 33.0625 32.722656 33.300781 C 33.226562 33.539062 33.78125 33.664062 34.335938 33.664062 C 34.953125 33.660156 35.558594 33.507812 36.101562 33.21875 C 36.640625 32.929688 37.105469 32.511719 37.445312 32 Z M 37.445312 32 "/>
<path style=" stroke:none;fill-rule:nonzero;fill:url(#linear2);" d="M 26.765625 51.507812 C 26.511719 51.652344 26.300781 51.855469 26.144531 52.101562 C 25.804688 52.609375 25.34375 53.027344 24.800781 53.316406 C 24.257812 53.609375 23.652344 53.761719 23.039062 53.761719 C 22.480469 53.761719 21.929688 53.636719 21.425781 53.398438 C 20.921875 53.160156 20.476562 52.8125 20.125 52.378906 C 19.773438 51.941406 19.519531 51.433594 19.390625 50.886719 C 19.257812 50.339844 19.253906 49.769531 19.371094 49.222656 C 19.523438 48.507812 19.882812 47.851562 20.410156 47.339844 C 20.933594 46.828125 21.597656 46.480469 22.316406 46.34375 C 23.050781 46.199219 23.808594 46.273438 24.496094 46.5625 C 25.1875 46.847656 25.773438 47.332031 26.1875 47.957031 C 26.347656 48.183594 26.566406 48.371094 26.816406 48.496094 C 27.070312 48.621094 27.347656 48.683594 27.628906 48.675781 L 29.726562 48.675781 C 30.007812 48.683594 30.289062 48.621094 30.539062 48.496094 C 30.792969 48.371094 31.007812 48.1875 31.171875 47.957031 C 31.578125 47.328125 32.164062 46.835938 32.855469 46.539062 C 33.542969 46.246094 34.304688 46.167969 35.042969 46.308594 C 35.765625 46.445312 36.429688 46.792969 36.953125 47.304688 C 37.175781 47.523438 37.371094 47.769531 37.53125 48.03125 C 37.6875 48.226562 37.882812 48.382812 38.105469 48.496094 C 38.355469 48.621094 38.636719 48.683594 38.917969 48.675781 L 41.015625 48.675781 C 41.296875 48.683594 41.574219 48.621094 41.828125 48.496094 C 42.078125 48.371094 42.296875 48.1875 42.457031 47.957031 C 42.863281 47.328125 43.449219 46.835938 44.140625 46.539062 C 44.832031 46.246094 45.59375 46.167969 46.332031 46.308594 C 47.050781 46.445312 47.714844 46.792969 48.238281 47.304688 C 48.761719 47.816406 49.125 48.46875 49.277344 49.1875 C 49.394531 49.734375 49.390625 50.304688 49.257812 50.851562 C 49.128906 51.398438 48.875 51.90625 48.519531 52.34375 C 48.171875 52.777344 47.726562 53.125 47.222656 53.363281 C 46.71875 53.601562 46.171875 53.726562 45.613281 53.726562 C 45.003906 53.726562 44.402344 53.578125 43.863281 53.292969 C 43.324219 53.011719 42.863281 52.601562 42.519531 52.101562 C 42.363281 51.855469 42.152344 51.652344 41.898438 51.507812 C 41.648438 51.363281 41.363281 51.285156 41.074219 51.277344 L 38.878906 51.277344 C 38.585938 51.285156 38.304688 51.367188 38.050781 51.507812 C 37.800781 51.652344 37.589844 51.855469 37.433594 52.101562 C 37.09375 52.609375 36.628906 53.027344 36.089844 53.316406 C 35.546875 53.609375 34.941406 53.761719 34.324219 53.761719 C 33.769531 53.761719 33.214844 53.636719 32.710938 53.398438 C 32.207031 53.160156 31.765625 52.8125 31.414062 52.378906 C 31.289062 52.226562 31.175781 52.0625 31.078125 51.890625 C 30.945312 51.738281 30.789062 51.609375 30.613281 51.507812 C 30.359375 51.363281 30.078125 51.285156 29.789062 51.277344 L 27.589844 51.277344 C 27.300781 51.285156 27.015625 51.367188 26.765625 51.507812 Z M 26.765625 51.507812 "/>
<path style=" stroke:none;fill-rule:nonzero;fill:url(#linear3);" d="M 43.707031 61.558594 C 43.457031 61.703125 43.242188 61.90625 43.089844 62.148438 C 42.746094 62.660156 42.285156 63.078125 41.742188 63.367188 C 41.203125 63.65625 40.597656 63.808594 39.980469 63.8125 C 39.421875 63.8125 38.871094 63.6875 38.367188 63.449219 C 37.863281 63.210938 37.421875 62.863281 37.070312 62.429688 C 36.714844 61.992188 36.464844 61.480469 36.332031 60.9375 C 36.203125 60.390625 36.195312 59.820312 36.3125 59.269531 C 36.46875 58.554688 36.828125 57.902344 37.351562 57.390625 C 37.875 56.878906 38.539062 56.53125 39.257812 56.394531 C 39.992188 56.25 40.75 56.324219 41.441406 56.609375 C 42.128906 56.898438 42.71875 57.382812 43.128906 58.003906 C 43.292969 58.234375 43.507812 58.417969 43.761719 58.542969 C 44.011719 58.671875 44.289062 58.730469 44.574219 58.722656 L 46.667969 58.722656 C 46.953125 58.734375 47.230469 58.671875 47.484375 58.546875 C 47.734375 58.421875 47.953125 58.234375 48.113281 58.003906 C 48.519531 57.375 49.105469 56.882812 49.796875 56.589844 C 50.488281 56.296875 51.25 56.214844 51.984375 56.355469 C 52.707031 56.496094 53.371094 56.839844 53.894531 57.351562 C 54.417969 57.863281 54.78125 58.519531 54.929688 59.234375 C 55.050781 59.785156 55.046875 60.355469 54.914062 60.898438 C 54.785156 61.445312 54.53125 61.957031 54.175781 62.394531 C 53.828125 62.828125 53.382812 63.175781 52.878906 63.414062 C 52.375 63.652344 51.824219 63.777344 51.269531 63.773438 C 50.660156 63.777344 50.058594 63.628906 49.519531 63.34375 C 48.980469 63.0625 48.519531 62.652344 48.175781 62.148438 C 48.019531 61.90625 47.808594 61.703125 47.554688 61.558594 C 47.304688 61.414062 47.019531 61.335938 46.730469 61.324219 L 44.53125 61.324219 C 44.242188 61.335938 43.960938 61.414062 43.707031 61.558594 Z M 43.707031 61.558594 "/>
<path style=" stroke:none;fill-rule:nonzero;fill:url(#linear4);" d="M 59.078125 39.929688 C 59.078125 40.917969 59.476562 41.871094 60.179688 42.570312 C 60.882812 43.269531 61.835938 43.664062 62.828125 43.664062 C 63.824219 43.664062 64.777344 43.269531 65.480469 42.570312 C 66.183594 41.871094 66.578125 40.917969 66.578125 39.929688 C 66.578125 38.9375 66.183594 37.988281 65.480469 37.285156 C 64.777344 36.585938 63.824219 36.191406 62.828125 36.191406 C 61.835938 36.191406 60.882812 36.585938 60.179688 37.285156 C 59.476562 37.988281 59.078125 38.9375 59.078125 39.929688 Z M 59.078125 39.929688 "/>
<path style=" stroke:none;fill-rule:nonzero;fill:url(#linear5);" d="M 25.753906 42.570312 C 25.050781 41.871094 24.65625 40.917969 24.652344 39.929688 C 24.65625 38.9375 25.050781 37.988281 25.753906 37.285156 C 26.457031 36.585938 27.410156 36.191406 28.402344 36.191406 C 29.398438 36.191406 30.351562 36.585938 31.054688 37.285156 C 31.757812 37.988281 32.152344 38.9375 32.15625 39.929688 C 32.152344 40.917969 31.757812 41.871094 31.054688 42.570312 C 30.351562 43.269531 29.398438 43.664062 28.402344 43.664062 C 27.410156 43.664062 26.457031 43.269531 25.753906 42.570312 Z M 25.753906 42.570312 "/>
<path style=" stroke:none;fill-rule:nonzero;fill:rgb(100%,100%,100%);fill-opacity:1;" d="M 53.136719 29.878906 C 53.136719 30.871094 53.535156 31.820312 54.238281 32.519531 C 54.941406 33.222656 55.894531 33.617188 56.886719 33.617188 C 57.882812 33.617188 58.835938 33.222656 59.539062 32.519531 C 60.242188 31.820312 60.636719 30.871094 60.636719 29.878906 C 60.636719 28.886719 60.242188 27.9375 59.539062 27.238281 C 58.835938 26.535156 57.882812 26.140625 56.886719 26.140625 C 55.894531 26.140625 54.941406 26.535156 54.238281 27.238281 C 53.535156 27.9375 53.136719 28.886719 53.136719 29.878906 Z M 53.136719 29.878906 "/>
<path style=" stroke:none;fill-rule:nonzero;fill:rgb(100%,100%,100%);fill-opacity:1;" d="M 19.300781 29.878906 C 19.300781 30.871094 19.695312 31.820312 20.398438 32.519531 C 21.101562 33.222656 22.054688 33.617188 23.050781 33.617188 C 24.042969 33.617188 24.996094 33.222656 25.699219 32.519531 C 26.402344 31.820312 26.796875 30.871094 26.800781 29.878906 C 26.796875 28.886719 26.402344 27.9375 25.699219 27.238281 C 24.996094 26.535156 24.042969 26.140625 23.050781 26.140625 C 22.054688 26.140625 21.101562 26.535156 20.398438 27.238281 C 19.695312 27.9375 19.300781 28.886719 19.300781 29.878906 Z M 19.300781 29.878906 "/>
<path style=" stroke:none;fill-rule:nonzero;fill:rgb(100%,100%,100%);fill-opacity:1;" d="M 53.136719 49.976562 C 53.136719 50.96875 53.535156 51.917969 54.238281 52.621094 C 54.941406 53.320312 55.894531 53.714844 56.886719 53.714844 C 57.882812 53.714844 58.835938 53.320312 59.539062 52.621094 C 60.242188 51.917969 60.636719 50.96875 60.636719 49.976562 C 60.636719 48.988281 60.242188 48.035156 59.539062 47.335938 C 58.835938 46.636719 57.882812 46.242188 56.886719 46.238281 C 55.894531 46.242188 54.941406 46.636719 54.238281 47.335938 C 53.535156 48.035156 53.136719 48.988281 53.136719 49.976562 Z M 53.136719 49.976562 "/>
</g>
</svg>
