<?xml version="1.0" encoding="UTF-8"?>
<svg xmlns="http://www.w3.org/2000/svg" xmlns:xlink="http://www.w3.org/1999/xlink" width="16px" height="16px" viewBox="0 0 16 16" version="1.1">
<defs>
<linearGradient id="linear0" gradientUnits="userSpaceOnUse" x1="111.624" y1="80.764" x2="335.625" y2="384.799" gradientTransform="matrix(0.0345572,0,0,0.0345572,0,0)">
<stop offset="0" style="stop-color:rgb(0%,98.039216%,100%);stop-opacity:1;"/>
<stop offset="1" style="stop-color:rgb(54.509804%,100%,58.431373%);stop-opacity:1;"/>
</linearGradient>
<linearGradient id="linear1" gradientUnits="userSpaceOnUse" x1="111.624" y1="80.764" x2="335.625" y2="384.799" gradientTransform="matrix(0.0345572,0,0,0.0345572,0,0)">
<stop offset="0" style="stop-color:rgb(0%,98.039216%,100%);stop-opacity:1;"/>
<stop offset="1" style="stop-color:rgb(54.509804%,100%,58.431373%);stop-opacity:1;"/>
</linearGradient>
<linearGradient id="linear2" gradientUnits="userSpaceOnUse" x1="111.624" y1="80.764" x2="335.625" y2="384.799" gradientTransform="matrix(0.0345572,0,0,0.0345572,0,0)">
<stop offset="0" style="stop-color:rgb(0%,98.039216%,100%);stop-opacity:1;"/>
<stop offset="1" style="stop-color:rgb(54.509804%,100%,58.431373%);stop-opacity:1;"/>
</linearGradient>
<linearGradient id="linear3" gradientUnits="userSpaceOnUse" x1="111.624" y1="80.764" x2="335.625" y2="384.799" gradientTransform="matrix(0.0345572,0,0,0.0345572,0,0)">
<stop offset="0" style="stop-color:rgb(0%,98.039216%,100%);stop-opacity:1;"/>
<stop offset="1" style="stop-color:rgb(54.509804%,100%,58.431373%);stop-opacity:1;"/>
</linearGradient>
<linearGradient id="linear4" gradientUnits="userSpaceOnUse" x1="111.624" y1="80.764" x2="335.625" y2="384.799" gradientTransform="matrix(0.0345572,0,0,0.0345572,0,0)">
<stop offset="0" style="stop-color:rgb(0%,98.039216%,100%);stop-opacity:1;"/>
<stop offset="1" style="stop-color:rgb(54.509804%,100%,58.431373%);stop-opacity:1;"/>
</linearGradient>
<linearGradient id="linear5" gradientUnits="userSpaceOnUse" x1="111.624" y1="80.764" x2="335.625" y2="384.799" gradientTransform="matrix(0.0345572,0,0,0.0345572,0,0)">
<stop offset="0" style="stop-color:rgb(0%,98.039216%,100%);stop-opacity:1;"/>
<stop offset="1" style="stop-color:rgb(54.509804%,100%,58.431373%);stop-opacity:1;"/>
</linearGradient>
</defs>
<g id="surface1">
<path style=" stroke:none;fill-rule:nonzero;fill:rgb(100%,100%,100%);fill-opacity:1;" d="M 9.5 3.964844 C 9.5 4.164062 9.582031 4.355469 9.722656 4.496094 C 9.863281 4.632812 10.050781 4.714844 10.25 4.714844 C 10.449219 4.714844 10.640625 4.632812 10.78125 4.496094 C 10.921875 4.355469 11 4.164062 11 3.964844 C 11 3.769531 10.921875 3.578125 10.78125 3.4375 C 10.640625 3.296875 10.449219 3.21875 10.25 3.21875 C 10.050781 3.21875 9.863281 3.296875 9.722656 3.4375 C 9.582031 3.578125 9.5 3.769531 9.5 3.964844 Z M 9.5 3.964844 "/>
<path style=" stroke:none;fill-rule:nonzero;fill:rgb(100%,100%,100%);fill-opacity:1;" d="M 4.984375 12.003906 C 4.988281 12.203125 5.066406 12.394531 5.207031 12.535156 C 5.347656 12.675781 5.539062 12.753906 5.734375 12.753906 C 5.933594 12.753906 6.125 12.675781 6.265625 12.535156 C 6.40625 12.394531 6.484375 12.203125 6.484375 12.003906 C 6.484375 11.808594 6.40625 11.617188 6.265625 11.476562 C 6.125 11.335938 5.933594 11.257812 5.734375 11.257812 C 5.539062 11.257812 5.347656 11.335938 5.207031 11.476562 C 5.066406 11.617188 4.988281 11.808594 4.984375 12.003906 Z M 4.984375 12.003906 "/>
<path style=" stroke:none;fill-rule:nonzero;fill:rgb(100%,100%,100%);fill-opacity:1;" d="M 9.445312 7.984375 C 9.445312 8.183594 9.523438 8.375 9.664062 8.515625 C 9.804688 8.652344 9.996094 8.734375 10.195312 8.734375 C 10.394531 8.734375 10.585938 8.652344 10.726562 8.515625 C 10.867188 8.375 10.945312 8.183594 10.945312 7.984375 C 10.945312 7.789062 10.867188 7.597656 10.726562 7.457031 C 10.585938 7.316406 10.394531 7.238281 10.195312 7.238281 C 9.996094 7.238281 9.804688 7.316406 9.664062 7.457031 C 9.523438 7.597656 9.445312 7.789062 9.445312 7.984375 Z M 9.445312 7.984375 "/>
<path style=" stroke:none;fill-rule:nonzero;fill:rgb(100%,100%,100%);fill-opacity:1;" d="M 2.671875 7.984375 C 2.671875 8.183594 2.75 8.375 2.890625 8.515625 C 3.03125 8.652344 3.222656 8.734375 3.421875 8.734375 C 3.621094 8.734375 3.8125 8.652344 3.953125 8.515625 C 4.09375 8.375 4.171875 8.183594 4.171875 7.984375 C 4.171875 7.789062 4.09375 7.597656 3.953125 7.457031 C 3.8125 7.316406 3.621094 7.238281 3.421875 7.238281 C 3.222656 7.238281 3.03125 7.316406 2.890625 7.457031 C 2.75 7.597656 2.671875 7.789062 2.671875 7.984375 Z M 2.671875 7.984375 "/>
<path style=" stroke:none;fill-rule:nonzero;fill:url(#linear0);" d="M 6.359375 4.386719 C 6.390625 4.335938 6.433594 4.296875 6.484375 4.265625 C 6.535156 4.238281 6.589844 4.222656 6.648438 4.222656 L 7.089844 4.222656 C 7.148438 4.222656 7.203125 4.238281 7.253906 4.265625 C 7.304688 4.296875 7.347656 4.335938 7.378906 4.386719 C 7.445312 4.484375 7.539062 4.566406 7.644531 4.625 C 7.753906 4.679688 7.875 4.710938 7.996094 4.710938 C 8.109375 4.710938 8.21875 4.6875 8.320312 4.636719 C 8.417969 4.589844 8.507812 4.519531 8.578125 4.433594 C 8.648438 4.347656 8.699219 4.246094 8.726562 4.136719 C 8.75 4.027344 8.753906 3.914062 8.730469 3.804688 C 8.699219 3.660156 8.625 3.527344 8.523438 3.425781 C 8.417969 3.324219 8.285156 3.253906 8.140625 3.226562 C 7.992188 3.199219 7.839844 3.214844 7.703125 3.273438 C 7.5625 3.332031 7.445312 3.429688 7.363281 3.558594 C 7.332031 3.601562 7.289062 3.640625 7.238281 3.664062 C 7.1875 3.691406 7.132812 3.703125 7.078125 3.699219 L 6.65625 3.699219 C 6.601562 3.703125 6.546875 3.691406 6.496094 3.664062 C 6.445312 3.640625 6.402344 3.601562 6.367188 3.558594 C 6.285156 3.433594 6.167969 3.335938 6.03125 3.277344 C 5.894531 3.21875 5.742188 3.207031 5.59375 3.234375 C 5.449219 3.261719 5.316406 3.332031 5.210938 3.433594 C 5.109375 3.535156 5.035156 3.667969 5.003906 3.808594 C 4.980469 3.917969 4.984375 4.035156 5.007812 4.144531 C 5.035156 4.253906 5.085938 4.355469 5.15625 4.441406 C 5.226562 4.527344 5.316406 4.597656 5.417969 4.644531 C 5.515625 4.695312 5.628906 4.71875 5.738281 4.71875 C 5.863281 4.71875 5.984375 4.6875 6.089844 4.628906 C 6.199219 4.570312 6.292969 4.488281 6.359375 4.386719 Z M 6.359375 4.386719 "/>
<path style=" stroke:none;fill-rule:nonzero;fill:url(#linear1);" d="M 7.488281 6.398438 C 7.519531 6.351562 7.5625 6.3125 7.613281 6.28125 C 7.664062 6.253906 7.71875 6.238281 7.777344 6.234375 L 8.21875 6.234375 C 8.277344 6.238281 8.332031 6.253906 8.382812 6.28125 C 8.433594 6.3125 8.476562 6.351562 8.507812 6.398438 C 8.574219 6.5 8.667969 6.582031 8.773438 6.640625 C 8.882812 6.695312 9.003906 6.726562 9.125 6.726562 C 9.238281 6.726562 9.347656 6.699219 9.445312 6.652344 C 9.546875 6.605469 9.636719 6.535156 9.707031 6.449219 C 9.777344 6.363281 9.828125 6.257812 9.855469 6.148438 C 9.878906 6.042969 9.882812 5.925781 9.859375 5.816406 C 9.828125 5.675781 9.753906 5.542969 9.648438 5.441406 C 9.546875 5.339844 9.414062 5.269531 9.269531 5.242188 C 9.121094 5.214844 8.96875 5.230469 8.832031 5.289062 C 8.691406 5.347656 8.574219 5.445312 8.492188 5.570312 C 8.460938 5.617188 8.417969 5.65625 8.367188 5.679688 C 8.316406 5.703125 8.261719 5.71875 8.207031 5.714844 L 7.785156 5.714844 C 7.730469 5.714844 7.671875 5.703125 7.625 5.679688 C 7.574219 5.652344 7.53125 5.617188 7.496094 5.570312 C 7.414062 5.445312 7.296875 5.351562 7.160156 5.292969 C 7.023438 5.234375 6.871094 5.21875 6.722656 5.25 C 6.578125 5.277344 6.445312 5.347656 6.339844 5.449219 C 6.238281 5.550781 6.164062 5.679688 6.132812 5.824219 C 6.109375 5.933594 6.113281 6.046875 6.136719 6.15625 C 6.164062 6.265625 6.214844 6.367188 6.285156 6.457031 C 6.355469 6.542969 6.445312 6.613281 6.542969 6.660156 C 6.644531 6.707031 6.757812 6.734375 6.867188 6.734375 C 6.992188 6.730469 7.113281 6.703125 7.21875 6.644531 C 7.328125 6.585938 7.421875 6.503906 7.488281 6.398438 Z M 7.488281 6.398438 "/>
<path style=" stroke:none;fill-rule:nonzero;fill:url(#linear2);" d="M 5.351562 10.300781 C 5.300781 10.332031 5.261719 10.371094 5.230469 10.421875 C 5.160156 10.523438 5.070312 10.605469 4.960938 10.664062 C 4.851562 10.722656 4.730469 10.753906 4.609375 10.753906 C 4.496094 10.753906 4.386719 10.726562 4.285156 10.679688 C 4.183594 10.632812 4.09375 10.5625 4.023438 10.476562 C 3.953125 10.386719 3.902344 10.285156 3.878906 10.175781 C 3.851562 10.066406 3.851562 9.953125 3.875 9.84375 C 3.90625 9.703125 3.976562 9.570312 4.082031 9.46875 C 4.1875 9.367188 4.320312 9.296875 4.464844 9.269531 C 4.609375 9.238281 4.761719 9.253906 4.898438 9.3125 C 5.039062 9.371094 5.15625 9.464844 5.238281 9.589844 C 5.269531 9.636719 5.3125 9.675781 5.363281 9.699219 C 5.414062 9.722656 5.46875 9.738281 5.527344 9.734375 L 5.945312 9.734375 C 6 9.738281 6.058594 9.722656 6.109375 9.699219 C 6.160156 9.675781 6.203125 9.636719 6.234375 9.589844 C 6.316406 9.464844 6.433594 9.367188 6.570312 9.308594 C 6.707031 9.25 6.859375 9.234375 7.007812 9.261719 C 7.152344 9.289062 7.285156 9.359375 7.390625 9.460938 C 7.433594 9.503906 7.472656 9.554688 7.507812 9.605469 C 7.539062 9.644531 7.578125 9.675781 7.621094 9.699219 C 7.671875 9.722656 7.726562 9.738281 7.785156 9.734375 L 8.203125 9.734375 C 8.257812 9.738281 8.316406 9.722656 8.367188 9.699219 C 8.414062 9.675781 8.460938 9.636719 8.492188 9.589844 C 8.574219 9.464844 8.691406 9.367188 8.828125 9.308594 C 8.964844 9.25 9.117188 9.234375 9.265625 9.261719 C 9.410156 9.289062 9.542969 9.359375 9.648438 9.460938 C 9.753906 9.5625 9.824219 9.695312 9.855469 9.835938 C 9.878906 9.945312 9.878906 10.0625 9.851562 10.171875 C 9.824219 10.28125 9.773438 10.382812 9.703125 10.46875 C 9.632812 10.554688 9.546875 10.625 9.445312 10.671875 C 9.34375 10.71875 9.234375 10.746094 9.121094 10.746094 C 9 10.746094 8.878906 10.714844 8.773438 10.660156 C 8.664062 10.601562 8.574219 10.519531 8.503906 10.421875 C 8.472656 10.371094 8.429688 10.332031 8.378906 10.300781 C 8.328125 10.273438 8.273438 10.257812 8.214844 10.253906 L 7.777344 10.253906 C 7.71875 10.257812 7.660156 10.273438 7.609375 10.300781 C 7.558594 10.332031 7.519531 10.371094 7.488281 10.421875 C 7.417969 10.523438 7.324219 10.605469 7.21875 10.664062 C 7.109375 10.722656 6.988281 10.753906 6.863281 10.753906 C 6.753906 10.753906 6.644531 10.726562 6.542969 10.679688 C 6.441406 10.632812 6.351562 10.5625 6.28125 10.476562 C 6.257812 10.445312 6.234375 10.414062 6.214844 10.378906 C 6.1875 10.347656 6.15625 10.320312 6.121094 10.300781 C 6.070312 10.273438 6.015625 10.257812 5.957031 10.253906 L 5.519531 10.253906 C 5.460938 10.257812 5.402344 10.273438 5.351562 10.300781 Z M 5.351562 10.300781 "/>
<path style=" stroke:none;fill-rule:nonzero;fill:url(#linear3);" d="M 8.742188 12.3125 C 8.691406 12.339844 8.648438 12.382812 8.617188 12.429688 C 8.550781 12.53125 8.457031 12.617188 8.347656 12.671875 C 8.242188 12.730469 8.121094 12.761719 7.996094 12.761719 C 7.882812 12.761719 7.773438 12.738281 7.671875 12.691406 C 7.574219 12.640625 7.484375 12.574219 7.414062 12.484375 C 7.34375 12.398438 7.292969 12.296875 7.265625 12.1875 C 7.242188 12.078125 7.238281 11.964844 7.261719 11.855469 C 7.292969 11.710938 7.367188 11.582031 7.46875 11.476562 C 7.574219 11.375 7.707031 11.304688 7.851562 11.277344 C 8 11.25 8.148438 11.265625 8.289062 11.320312 C 8.425781 11.378906 8.542969 11.476562 8.625 11.601562 C 8.660156 11.648438 8.703125 11.683594 8.753906 11.707031 C 8.800781 11.734375 8.859375 11.746094 8.914062 11.746094 L 9.332031 11.746094 C 9.390625 11.746094 9.445312 11.734375 9.496094 11.710938 C 9.546875 11.683594 9.589844 11.648438 9.621094 11.601562 C 9.703125 11.476562 9.820312 11.375 9.960938 11.316406 C 10.097656 11.257812 10.25 11.242188 10.398438 11.269531 C 10.542969 11.300781 10.675781 11.367188 10.777344 11.46875 C 10.882812 11.574219 10.957031 11.703125 10.984375 11.847656 C 11.011719 11.957031 11.007812 12.070312 10.984375 12.179688 C 10.957031 12.289062 10.90625 12.390625 10.835938 12.480469 C 10.765625 12.566406 10.675781 12.636719 10.574219 12.683594 C 10.476562 12.730469 10.363281 12.753906 10.253906 12.753906 C 10.132812 12.753906 10.011719 12.726562 9.902344 12.667969 C 9.796875 12.613281 9.703125 12.53125 9.636719 12.429688 C 9.605469 12.382812 9.5625 12.339844 9.511719 12.3125 C 9.460938 12.28125 9.402344 12.265625 9.347656 12.265625 L 8.90625 12.265625 C 8.847656 12.265625 8.792969 12.28125 8.742188 12.3125 Z M 8.742188 12.3125 "/>
<path style=" stroke:none;fill-rule:nonzero;fill:url(#linear4);" d="M 11.816406 7.984375 C 11.816406 8.183594 11.894531 8.375 12.035156 8.515625 C 12.175781 8.652344 12.367188 8.734375 12.566406 8.734375 C 12.765625 8.734375 12.957031 8.652344 13.097656 8.515625 C 13.238281 8.375 13.316406 8.183594 13.316406 7.984375 C 13.316406 7.789062 13.238281 7.597656 13.097656 7.457031 C 12.957031 7.316406 12.765625 7.238281 12.566406 7.238281 C 12.367188 7.238281 12.175781 7.316406 12.035156 7.457031 C 11.894531 7.597656 11.816406 7.789062 11.816406 7.984375 Z M 11.816406 7.984375 "/>
<path style=" stroke:none;fill-rule:nonzero;fill:url(#linear5);" d="M 5.152344 8.515625 C 5.011719 8.375 4.929688 8.183594 4.929688 7.984375 C 4.929688 7.789062 5.011719 7.597656 5.152344 7.457031 C 5.292969 7.316406 5.480469 7.238281 5.679688 7.238281 C 5.878906 7.238281 6.070312 7.316406 6.210938 7.457031 C 6.351562 7.597656 6.429688 7.789062 6.429688 7.984375 C 6.429688 8.183594 6.351562 8.375 6.210938 8.515625 C 6.070312 8.652344 5.878906 8.734375 5.679688 8.734375 C 5.480469 8.734375 5.292969 8.652344 5.152344 8.515625 Z M 5.152344 8.515625 "/>
<path style=" stroke:none;fill-rule:nonzero;fill:rgb(100%,100%,100%);fill-opacity:1;" d="M 10.628906 5.976562 C 10.628906 6.175781 10.707031 6.363281 10.847656 6.503906 C 10.988281 6.644531 11.179688 6.722656 11.378906 6.722656 C 11.578125 6.722656 11.765625 6.644531 11.90625 6.503906 C 12.046875 6.363281 12.128906 6.175781 12.128906 5.976562 C 12.128906 5.777344 12.046875 5.585938 11.90625 5.449219 C 11.765625 5.308594 11.578125 5.226562 11.378906 5.226562 C 11.179688 5.226562 10.988281 5.308594 10.847656 5.449219 C 10.707031 5.585938 10.628906 5.777344 10.628906 5.976562 Z M 10.628906 5.976562 "/>
<path style=" stroke:none;fill-rule:nonzero;fill:rgb(100%,100%,100%);fill-opacity:1;" d="M 3.859375 5.976562 C 3.859375 6.175781 3.9375 6.363281 4.078125 6.503906 C 4.21875 6.644531 4.410156 6.722656 4.609375 6.722656 C 4.808594 6.722656 5 6.644531 5.140625 6.503906 C 5.28125 6.363281 5.359375 6.175781 5.359375 5.976562 C 5.359375 5.777344 5.28125 5.585938 5.140625 5.449219 C 5 5.308594 4.808594 5.226562 4.609375 5.226562 C 4.410156 5.226562 4.21875 5.308594 4.078125 5.449219 C 3.9375 5.585938 3.859375 5.777344 3.859375 5.976562 Z M 3.859375 5.976562 "/>
<path style=" stroke:none;fill-rule:nonzero;fill:rgb(100%,100%,100%);fill-opacity:1;" d="M 10.628906 9.996094 C 10.628906 10.195312 10.707031 10.382812 10.847656 10.523438 C 10.988281 10.664062 11.179688 10.742188 11.378906 10.742188 C 11.578125 10.742188 11.765625 10.664062 11.90625 10.523438 C 12.046875 10.382812 12.128906 10.195312 12.128906 9.996094 C 12.128906 9.796875 12.046875 9.605469 11.90625 9.46875 C 11.765625 9.328125 11.578125 9.25 11.378906 9.246094 C 11.179688 9.25 10.988281 9.328125 10.847656 9.46875 C 10.707031 9.605469 10.628906 9.796875 10.628906 9.996094 Z M 10.628906 9.996094 "/>
</g>
</svg>
