<?xml version="1.0" encoding="UTF-8"?>
<svg xmlns="http://www.w3.org/2000/svg" xmlns:xlink="http://www.w3.org/1999/xlink" width="13px" height="13px" viewBox="0 0 13 13" version="1.1">
<g id="surface1">
<path style=" stroke:none;fill-rule:nonzero;fill:rgb(100%,100%,100%);fill-opacity:1;" d="M 7.714844 3.222656 C 7.714844 3.382812 7.78125 3.539062 7.894531 3.652344 C 8.007812 3.765625 8.164062 3.828125 8.324219 3.828125 C 8.484375 3.828125 8.640625 3.765625 8.753906 3.652344 C 8.871094 3.539062 8.933594 3.382812 8.933594 3.222656 C 8.933594 3.0625 8.871094 2.90625 8.753906 2.792969 C 8.640625 2.679688 8.484375 2.613281 8.324219 2.613281 C 8.164062 2.613281 8.007812 2.679688 7.894531 2.792969 C 7.78125 2.90625 7.714844 3.0625 7.714844 3.222656 Z M 7.714844 3.222656 "/>
<path style=" stroke:none;fill-rule:nonzero;fill:rgb(100%,100%,100%);fill-opacity:1;" d="M 4.046875 9.753906 C 4.046875 9.914062 4.109375 10.070312 4.226562 10.183594 C 4.339844 10.296875 4.496094 10.363281 4.65625 10.363281 C 4.816406 10.363281 4.972656 10.296875 5.085938 10.183594 C 5.199219 10.070312 5.265625 9.914062 5.265625 9.753906 C 5.265625 9.59375 5.199219 9.4375 5.085938 9.324219 C 4.972656 9.210938 4.816406 9.148438 4.65625 9.148438 C 4.496094 9.148438 4.339844 9.210938 4.226562 9.324219 C 4.109375 9.4375 4.046875 9.59375 4.046875 9.753906 Z M 4.046875 9.753906 "/>
<path style=" stroke:none;fill-rule:nonzero;fill:rgb(100%,100%,100%);fill-opacity:1;" d="M 7.671875 6.488281 C 7.671875 6.648438 7.734375 6.804688 7.847656 6.917969 C 7.964844 7.03125 8.117188 7.09375 8.28125 7.097656 C 8.441406 7.09375 8.597656 7.03125 8.710938 6.917969 C 8.824219 6.804688 8.886719 6.648438 8.890625 6.488281 C 8.886719 6.328125 8.824219 6.171875 8.710938 6.058594 C 8.597656 5.945312 8.441406 5.882812 8.28125 5.882812 C 8.117188 5.882812 7.964844 5.945312 7.847656 6.058594 C 7.734375 6.171875 7.671875 6.328125 7.671875 6.488281 Z M 7.671875 6.488281 "/>
<path style=" stroke:none;fill-rule:nonzero;fill:rgb(100%,100%,100%);fill-opacity:1;" d="M 2.164062 6.488281 C 2.167969 6.648438 2.230469 6.804688 2.34375 6.917969 C 2.457031 7.03125 2.613281 7.09375 2.773438 7.097656 C 2.9375 7.09375 3.09375 7.03125 3.207031 6.917969 C 3.320312 6.804688 3.382812 6.648438 3.386719 6.488281 C 3.382812 6.328125 3.320312 6.171875 3.207031 6.058594 C 3.09375 5.945312 2.9375 5.882812 2.773438 5.882812 C 2.613281 5.882812 2.457031 5.945312 2.34375 6.058594 C 2.230469 6.171875 2.167969 6.328125 2.164062 6.488281 Z M 2.164062 6.488281 "/>
<path style=" stroke:none;fill-rule:nonzero;fill:rgb(100%,100%,100%);fill-opacity:1;" d="M 5.164062 3.5625 C 5.1875 3.523438 5.222656 3.492188 5.265625 3.46875 C 5.304688 3.445312 5.351562 3.429688 5.398438 3.429688 L 5.753906 3.429688 C 5.800781 3.429688 5.847656 3.445312 5.890625 3.46875 C 5.929688 3.492188 5.964844 3.523438 5.988281 3.5625 C 6.046875 3.644531 6.121094 3.710938 6.207031 3.757812 C 6.296875 3.804688 6.394531 3.828125 6.492188 3.828125 C 6.582031 3.828125 6.671875 3.808594 6.753906 3.769531 C 6.835938 3.730469 6.90625 3.671875 6.964844 3.601562 C 7.023438 3.53125 7.0625 3.449219 7.085938 3.359375 C 7.105469 3.273438 7.105469 3.179688 7.085938 3.089844 C 7.0625 2.972656 7.003906 2.867188 6.917969 2.785156 C 6.832031 2.699219 6.726562 2.644531 6.609375 2.621094 C 6.488281 2.597656 6.367188 2.613281 6.253906 2.660156 C 6.140625 2.707031 6.046875 2.789062 5.980469 2.890625 C 5.953125 2.925781 5.917969 2.957031 5.878906 2.976562 C 5.835938 3 5.789062 3.007812 5.746094 3.007812 L 5.402344 3.007812 C 5.359375 3.007812 5.3125 2.996094 5.273438 2.976562 C 5.230469 2.957031 5.195312 2.925781 5.167969 2.890625 C 5.101562 2.789062 5.007812 2.710938 4.894531 2.664062 C 4.785156 2.617188 4.660156 2.605469 4.539062 2.628906 C 4.421875 2.652344 4.316406 2.707031 4.230469 2.789062 C 4.144531 2.875 4.085938 2.980469 4.0625 3.09375 C 4.042969 3.183594 4.042969 3.277344 4.066406 3.367188 C 4.085938 3.453125 4.128906 3.539062 4.183594 3.609375 C 4.242188 3.679688 4.3125 3.734375 4.394531 3.773438 C 4.476562 3.8125 4.566406 3.832031 4.65625 3.832031 C 4.757812 3.832031 4.855469 3.808594 4.945312 3.761719 C 5.03125 3.714844 5.109375 3.644531 5.164062 3.5625 Z M 5.164062 3.5625 "/>
<path style=" stroke:none;fill-rule:nonzero;fill:rgb(100%,100%,100%);fill-opacity:1;" d="M 6.082031 5.199219 C 6.105469 5.160156 6.140625 5.128906 6.179688 5.105469 C 6.222656 5.082031 6.269531 5.066406 6.316406 5.066406 L 6.671875 5.066406 C 6.71875 5.066406 6.765625 5.082031 6.804688 5.105469 C 6.847656 5.128906 6.882812 5.160156 6.90625 5.199219 C 6.960938 5.28125 7.039062 5.347656 7.125 5.394531 C 7.210938 5.441406 7.308594 5.464844 7.410156 5.464844 C 7.5 5.464844 7.589844 5.445312 7.671875 5.40625 C 7.753906 5.367188 7.824219 5.308594 7.882812 5.238281 C 7.941406 5.167969 7.980469 5.085938 8.003906 4.996094 C 8.023438 4.910156 8.023438 4.816406 8.003906 4.726562 C 7.980469 4.609375 7.921875 4.503906 7.835938 4.421875 C 7.75 4.335938 7.644531 4.28125 7.527344 4.257812 C 7.40625 4.234375 7.28125 4.25 7.171875 4.296875 C 7.058594 4.34375 6.960938 4.425781 6.898438 4.527344 C 6.871094 4.5625 6.835938 4.59375 6.792969 4.613281 C 6.753906 4.636719 6.707031 4.644531 6.660156 4.644531 L 6.320312 4.644531 C 6.277344 4.644531 6.230469 4.636719 6.1875 4.613281 C 6.148438 4.59375 6.113281 4.5625 6.085938 4.527344 C 6.019531 4.425781 5.925781 4.347656 5.8125 4.300781 C 5.699219 4.253906 5.578125 4.242188 5.457031 4.265625 C 5.339844 4.289062 5.234375 4.34375 5.148438 4.425781 C 5.0625 4.511719 5.003906 4.617188 4.980469 4.734375 C 4.960938 4.820312 4.960938 4.914062 4.984375 5.003906 C 5.003906 5.089844 5.042969 5.175781 5.101562 5.246094 C 5.160156 5.316406 5.230469 5.371094 5.3125 5.410156 C 5.394531 5.449219 5.484375 5.46875 5.574219 5.46875 C 5.675781 5.46875 5.773438 5.445312 5.863281 5.398438 C 5.949219 5.351562 6.023438 5.28125 6.082031 5.199219 Z M 6.082031 5.199219 "/>
<path style=" stroke:none;fill-rule:nonzero;fill:rgb(100%,100%,100%);fill-opacity:1;" d="M 4.34375 8.371094 C 4.304688 8.394531 4.269531 8.425781 4.242188 8.464844 C 4.1875 8.550781 4.113281 8.617188 4.027344 8.664062 C 3.9375 8.710938 3.839844 8.734375 3.738281 8.734375 C 3.648438 8.738281 3.558594 8.714844 3.476562 8.675781 C 3.394531 8.636719 3.324219 8.582031 3.265625 8.511719 C 3.207031 8.441406 3.167969 8.359375 3.144531 8.269531 C 3.125 8.179688 3.125 8.085938 3.144531 8 C 3.167969 7.882812 3.226562 7.777344 3.3125 7.691406 C 3.398438 7.609375 3.503906 7.554688 3.621094 7.53125 C 3.742188 7.507812 3.863281 7.519531 3.976562 7.566406 C 4.089844 7.613281 4.183594 7.691406 4.25 7.792969 C 4.277344 7.828125 4.3125 7.859375 4.351562 7.878906 C 4.394531 7.902344 4.4375 7.910156 4.484375 7.910156 L 4.824219 7.910156 C 4.871094 7.910156 4.917969 7.902344 4.957031 7.878906 C 5 7.859375 5.035156 7.832031 5.058594 7.792969 C 5.125 7.691406 5.222656 7.609375 5.335938 7.5625 C 5.445312 7.515625 5.570312 7.503906 5.691406 7.523438 C 5.808594 7.546875 5.914062 7.605469 6 7.6875 C 6.035156 7.722656 6.066406 7.761719 6.09375 7.804688 C 6.121094 7.835938 6.152344 7.863281 6.1875 7.878906 C 6.226562 7.902344 6.273438 7.910156 6.320312 7.910156 L 6.660156 7.910156 C 6.707031 7.910156 6.75 7.902344 6.792969 7.878906 C 6.832031 7.859375 6.867188 7.832031 6.894531 7.792969 C 6.960938 7.691406 7.054688 7.609375 7.167969 7.5625 C 7.28125 7.515625 7.40625 7.503906 7.523438 7.523438 C 7.640625 7.546875 7.75 7.605469 7.835938 7.6875 C 7.917969 7.769531 7.976562 7.875 8.003906 7.992188 C 8.023438 8.082031 8.019531 8.175781 8 8.261719 C 7.980469 8.351562 7.9375 8.433594 7.878906 8.507812 C 7.824219 8.578125 7.75 8.632812 7.667969 8.671875 C 7.585938 8.710938 7.496094 8.730469 7.40625 8.730469 C 7.308594 8.730469 7.210938 8.707031 7.125 8.660156 C 7.035156 8.613281 6.960938 8.546875 6.90625 8.464844 C 6.878906 8.425781 6.84375 8.394531 6.804688 8.371094 C 6.761719 8.347656 6.71875 8.332031 6.671875 8.332031 L 6.3125 8.332031 C 6.265625 8.332031 6.21875 8.347656 6.179688 8.371094 C 6.136719 8.394531 6.101562 8.425781 6.078125 8.464844 C 6.023438 8.550781 5.949219 8.617188 5.859375 8.664062 C 5.773438 8.710938 5.671875 8.734375 5.574219 8.734375 C 5.484375 8.738281 5.394531 8.714844 5.3125 8.675781 C 5.230469 8.636719 5.15625 8.582031 5.101562 8.511719 C 5.078125 8.488281 5.0625 8.460938 5.046875 8.433594 C 5.023438 8.40625 5 8.386719 4.96875 8.371094 C 4.929688 8.347656 4.882812 8.332031 4.835938 8.332031 L 4.480469 8.332031 C 4.429688 8.332031 4.386719 8.347656 4.34375 8.371094 Z M 4.34375 8.371094 "/>
<path style=" stroke:none;fill-rule:nonzero;fill:rgb(100%,100%,100%);fill-opacity:1;" d="M 7.097656 10.003906 C 7.058594 10.027344 7.023438 10.058594 6.996094 10.097656 C 6.941406 10.183594 6.867188 10.25 6.777344 10.296875 C 6.691406 10.34375 6.59375 10.367188 6.492188 10.371094 C 6.402344 10.371094 6.3125 10.347656 6.230469 10.308594 C 6.148438 10.273438 6.074219 10.214844 6.019531 10.144531 C 5.960938 10.074219 5.921875 9.992188 5.898438 9.902344 C 5.878906 9.8125 5.878906 9.722656 5.894531 9.632812 C 5.921875 9.515625 5.980469 9.410156 6.066406 9.324219 C 6.148438 9.242188 6.257812 9.1875 6.375 9.164062 C 6.492188 9.140625 6.617188 9.152344 6.730469 9.199219 C 6.839844 9.246094 6.9375 9.324219 7.003906 9.425781 C 7.03125 9.464844 7.066406 9.492188 7.105469 9.511719 C 7.148438 9.535156 7.191406 9.542969 7.238281 9.542969 L 7.578125 9.542969 C 7.625 9.542969 7.671875 9.535156 7.710938 9.515625 C 7.753906 9.492188 7.789062 9.464844 7.8125 9.425781 C 7.878906 9.324219 7.976562 9.242188 8.085938 9.195312 C 8.199219 9.148438 8.324219 9.136719 8.441406 9.15625 C 8.558594 9.179688 8.667969 9.238281 8.753906 9.320312 C 8.839844 9.402344 8.898438 9.507812 8.921875 9.625 C 8.941406 9.714844 8.941406 9.808594 8.917969 9.894531 C 8.898438 9.984375 8.855469 10.066406 8.800781 10.140625 C 8.742188 10.210938 8.671875 10.265625 8.589844 10.304688 C 8.507812 10.34375 8.417969 10.363281 8.328125 10.363281 C 8.226562 10.363281 8.128906 10.339844 8.042969 10.292969 C 7.953125 10.246094 7.878906 10.179688 7.824219 10.097656 C 7.796875 10.058594 7.765625 10.027344 7.722656 10.003906 C 7.683594 9.980469 7.636719 9.96875 7.589844 9.964844 L 7.230469 9.964844 C 7.183594 9.96875 7.140625 9.980469 7.097656 10.003906 Z M 7.097656 10.003906 "/>
<path style=" stroke:none;fill-rule:nonzero;fill:rgb(100%,100%,100%);fill-opacity:1;" d="M 9.59375 6.488281 C 9.597656 6.648438 9.660156 6.804688 9.773438 6.917969 C 9.886719 7.03125 10.042969 7.09375 10.203125 7.097656 C 10.367188 7.09375 10.523438 7.03125 10.636719 6.917969 C 10.75 6.804688 10.8125 6.648438 10.8125 6.488281 C 10.8125 6.328125 10.75 6.171875 10.636719 6.058594 C 10.523438 5.945312 10.367188 5.882812 10.203125 5.882812 C 10.042969 5.882812 9.886719 5.945312 9.773438 6.058594 C 9.660156 6.171875 9.597656 6.328125 9.59375 6.488281 Z M 9.59375 6.488281 "/>
<path style=" stroke:none;fill-rule:nonzero;fill:rgb(100%,100%,100%);fill-opacity:1;" d="M 4.179688 6.917969 C 4.066406 6.804688 4 6.648438 4 6.488281 C 4 6.328125 4.066406 6.171875 4.179688 6.058594 C 4.292969 5.945312 4.449219 5.882812 4.609375 5.882812 C 4.773438 5.882812 4.925781 5.945312 5.042969 6.058594 C 5.15625 6.171875 5.21875 6.328125 5.21875 6.488281 C 5.21875 6.648438 5.15625 6.804688 5.042969 6.917969 C 4.925781 7.03125 4.773438 7.09375 4.609375 7.097656 C 4.449219 7.09375 4.292969 7.03125 4.179688 6.917969 Z M 4.179688 6.917969 "/>
<path style=" stroke:none;fill-rule:nonzero;fill:rgb(100%,100%,100%);fill-opacity:1;" d="M 8.628906 4.855469 C 8.628906 5.015625 8.695312 5.171875 8.808594 5.285156 C 8.921875 5.398438 9.078125 5.460938 9.238281 5.460938 C 9.402344 5.460938 9.554688 5.398438 9.671875 5.285156 C 9.785156 5.171875 9.847656 5.015625 9.847656 4.855469 C 9.847656 4.695312 9.785156 4.539062 9.671875 4.425781 C 9.554688 4.3125 9.402344 4.25 9.238281 4.246094 C 9.078125 4.25 8.921875 4.3125 8.808594 4.425781 C 8.695312 4.539062 8.628906 4.695312 8.628906 4.855469 Z M 8.628906 4.855469 "/>
<path style=" stroke:none;fill-rule:nonzero;fill:rgb(100%,100%,100%);fill-opacity:1;" d="M 3.132812 4.855469 C 3.132812 5.015625 3.195312 5.171875 3.308594 5.285156 C 3.425781 5.398438 3.578125 5.460938 3.742188 5.460938 C 3.902344 5.460938 4.058594 5.398438 4.171875 5.285156 C 4.285156 5.171875 4.351562 5.015625 4.351562 4.855469 C 4.351562 4.695312 4.285156 4.539062 4.171875 4.425781 C 4.058594 4.3125 3.902344 4.25 3.742188 4.246094 C 3.578125 4.25 3.425781 4.3125 3.308594 4.425781 C 3.195312 4.539062 3.132812 4.695312 3.132812 4.855469 Z M 3.132812 4.855469 "/>
<path style=" stroke:none;fill-rule:nonzero;fill:rgb(100%,100%,100%);fill-opacity:1;" d="M 8.628906 8.121094 C 8.628906 8.28125 8.695312 8.4375 8.808594 8.550781 C 8.921875 8.664062 9.078125 8.730469 9.238281 8.730469 C 9.402344 8.730469 9.554688 8.664062 9.671875 8.550781 C 9.785156 8.4375 9.847656 8.28125 9.847656 8.121094 C 9.847656 7.960938 9.785156 7.804688 9.671875 7.691406 C 9.554688 7.578125 9.402344 7.515625 9.238281 7.515625 C 9.078125 7.515625 8.921875 7.578125 8.808594 7.691406 C 8.695312 7.804688 8.628906 7.960938 8.628906 8.121094 Z M 8.628906 8.121094 "/>
</g>
</svg>
